<svg width="32" height="32" viewBox="0 0 32 32" fill="none" xmlns="http://www.w3.org/2000/svg">
<rect width="32" height="32" rx="16" fill="#0E0E0E"/>
<path d="M16.2505 3.99475V4.00145L16.2483 3.99587L16.2505 3.99475Z" fill="#C82AEF"/>
<path d="M16.255 3.99698L16.2516 4.00368L16.2505 4.00145V3.99475L16.255 3.99698Z" fill="#C82AEF"/>
<path d="M23.2397 7.98718L25.5519 9.30905L25.543 9.32466H25.5419L23.2196 10.6566V7.99276V7.99164L23.2263 7.97937L23.2397 7.98606V7.98718Z" fill="#EBB0F9"/>
<path d="M25.5429 9.32465V22.6493H25.5418L23.2195 21.3163V18.6525V15.9864V13.3215L20.8961 14.6534V14.6545L18.5727 15.9864L16.2504 17.3194L13.9271 15.9864L11.6037 14.6545L9.28027 13.3215V10.6577L11.6037 11.9896L13.9271 13.3215L16.2504 14.6545V14.6534L18.5727 13.3215L20.8961 11.9896L23.2195 10.6577V10.6566L25.5418 9.32465H25.5429Z" fill="#C82AEF"/>
<path d="M23.2195 10.6566V10.6577L20.8961 9.32466L23.2195 7.99164V7.99275V10.6566Z" fill="#EBB0F9"/>
<path d="M23.2195 10.6577L20.8961 11.9896V9.32465L23.2195 10.6577Z" fill="#EBB0F9"/>
<path d="M20.8961 9.32465V11.9896L18.5728 10.6577V10.6566L20.8961 9.32465Z" fill="#EBB0F9"/>
<path d="M20.8961 11.9896L18.5728 13.3215V10.6577L20.8961 11.9896Z" fill="#EBB0F9"/>
<path d="M18.5727 23.9823V26.6461L16.2504 27.9781L13.9271 26.6461L11.6037 25.3131L9.28027 23.9812V21.3163L11.6037 22.6493L13.9271 23.9812V23.9823L16.2504 25.3131L18.5727 23.9812V23.9823Z" fill="#C82AEF"/>
<path d="M18.5728 10.6577V13.3215L16.2505 11.9896L18.5728 10.6577Z" fill="#EBB0F9"/>
<path d="M18.5728 13.3215L16.2505 14.6534V11.9896L18.5728 13.3215Z" fill="#EBB0F9"/>
<path d="M18.5728 23.9812L16.2505 25.3131V22.6493L18.5728 23.9812Z" fill="#EBB0F9"/>
<path d="M16.2505 22.6493V25.3131L13.9271 23.9823V23.9812L16.2505 22.6493Z" fill="#EBB0F9"/>
<path d="M16.2505 14.6534V14.6545L13.9271 13.3215L16.2505 11.9896V14.6534Z" fill="#EBB0F9"/>
<path d="M16.2505 11.9896L13.9271 13.3215V10.6577L16.2505 11.9896Z" fill="#EBB0F9"/>
<path d="M16.2505 22.6493L13.9271 23.9812V21.3163L16.2505 22.6493Z" fill="#EBB0F9"/>
<path d="M13.9272 21.3163V23.9812L11.6038 22.6493L13.9272 21.3163Z" fill="#EBB0F9"/>
<path d="M13.9272 10.6577V13.3215L11.6038 11.9896L13.9272 10.6577Z" fill="#EBB0F9"/>
<path d="M13.9272 10.6566V10.6577L11.6038 11.9896V9.32465L13.9272 10.6566Z" fill="#EBB0F9"/>
<path d="M13.9272 21.3163L11.6038 22.6493V19.9833L13.9272 21.3163Z" fill="#EBB0F9"/>
<path d="M11.6037 19.9833V22.6493L9.28027 21.3163L11.6037 19.9833Z" fill="#EBB0F9"/>
<path d="M11.6037 17.3195V19.9833L9.28027 18.6525L11.6037 17.3195Z" fill="#EBB0F9"/>
<path d="M11.6037 14.6545V17.3195L9.28027 15.9864L11.6037 14.6545Z" fill="#EBB0F9"/>
<path d="M11.6037 9.32465V11.9896L9.28027 10.6577L11.6037 9.32465Z" fill="#EBB0F9"/>
<path d="M11.6037 9.32466L9.28027 10.6577V7.99164L11.6037 9.32466Z" fill="#EBB0F9"/>
<path d="M11.6037 14.6545L9.28027 15.9864V13.3215L11.6037 14.6545Z" fill="#EBB0F9"/>
<path d="M11.6037 17.3194L9.28027 18.6524V15.9864L11.6037 17.3194Z" fill="#EBB0F9"/>
<path d="M11.6037 19.9833L9.28027 21.3163V18.6525L11.6037 19.9833Z" fill="#EBB0F9"/>
<path d="M9.28028 21.3163V23.9812L6.95801 22.6493V9.32465L9.28028 10.6577V13.3215V15.9864V18.6525V21.3163Z" fill="#C82AEF"/>
<path d="M9.28027 7.9916V10.6576L6.958 9.32462L6.92896 9.27443L6.96358 9.25435L9.25905 7.95367L9.28027 7.9916Z" fill="#EBB0F9"/>
<path d="M9.271 10.6506V7.98102" stroke="#C82AEF" stroke-width="0.11185" stroke-miterlimit="10"/>
<path d="M11.5975 6.64844V9.3158V11.9843" stroke="#C82AEF" stroke-width="0.11185" stroke-miterlimit="10"/>
<path d="M11.5975 14.6527V17.3212V19.9885V22.6581" stroke="#C82AEF" stroke-width="0.11185" stroke-miterlimit="10"/>
<path d="M13.924 10.6506V13.3179" stroke="#C82AEF" stroke-width="0.11185" stroke-miterlimit="10"/>
<path d="M13.924 5.3136V7.98096V10.6494" stroke="#C82AEF" stroke-width="0.11185" stroke-miterlimit="10"/>
<path d="M13.924 15.9865V18.656V21.3234V23.9919" stroke="#C82AEF" stroke-width="0.11185" stroke-miterlimit="10"/>
<path d="M16.2505 6.64619V3.98553" stroke="#C82AEF" stroke-width="0.11185" stroke-miterlimit="10"/>
<path d="M16.2505 14.6516V11.9843V9.3158V6.64844" stroke="#C82AEF" stroke-width="0.11185" stroke-miterlimit="10"/>
<path d="M16.2505 19.9897V22.6582V25.3255" stroke="#C82AEF" stroke-width="0.11185" stroke-miterlimit="10"/>
<path d="M16.2505 17.3212V19.9886" stroke="#C82AEF" stroke-width="0.11185" stroke-miterlimit="10"/>
<path d="M18.5758 10.6506V13.3179" stroke="#C82AEF" stroke-width="0.11185" stroke-miterlimit="10"/>
<path d="M18.5758 5.3136V7.98096V10.6494" stroke="#C82AEF" stroke-width="0.11185" stroke-miterlimit="10"/>
<path d="M18.5758 18.656V21.3234V23.9918" stroke="#C82AEF" stroke-width="0.11185" stroke-miterlimit="10"/>
<path d="M18.5758 15.9875V18.6549" stroke="#C82AEF" stroke-width="0.11185" stroke-miterlimit="10"/>
<path d="M20.9023 22.6582V25.3256" stroke="#C82AEF" stroke-width="0.11185" stroke-miterlimit="10"/>
<path d="M20.9023 19.9897V22.657" stroke="#C82AEF" stroke-width="0.11185" stroke-miterlimit="10"/>
<path d="M20.9023 14.6527V17.3212V19.9885" stroke="#C82AEF" stroke-width="0.11185" stroke-miterlimit="10"/>
<path d="M20.9023 11.9843V9.3158V6.64844" stroke="#C82AEF" stroke-width="0.11185" stroke-miterlimit="10"/>
<path d="M23.2288 21.3234V23.9918" stroke="#C82AEF" stroke-width="0.11185" stroke-miterlimit="10"/>
<path d="M23.2288 7.98102V7.98213V10.6495" stroke="#C82AEF" stroke-width="0.11185" stroke-miterlimit="10"/>
<path d="M16.2785 3.9621L13.9475 5.28349L13.9397 5.28908L11.6154 6.60377V6.60488L11.5987 6.61494L9.28337 7.92628L9.25653 7.94191L6.9513 9.24879L6.91663 9.26889" stroke="#C82AEF" stroke-width="0.11185" stroke-miterlimit="10"/>
<path d="M16.2504 6.64844L13.924 7.981L11.5975 9.3158L9.271 10.6506" stroke="#C82AEF" stroke-width="0.11185" stroke-miterlimit="10"/>
<path d="M18.5759 5.3136L16.2505 6.64616" stroke="#C82AEF" stroke-width="0.11185" stroke-miterlimit="10"/>
<path d="M13.924 10.6495L16.2504 9.31577L18.5758 7.98098L20.9023 6.64841V6.64618" stroke="#C82AEF" stroke-width="0.11185" stroke-miterlimit="10"/>
<path d="M11.5975 11.9843L13.924 10.6506" stroke="#C82AEF" stroke-width="0.11185" stroke-miterlimit="10"/>
<path d="M13.924 13.318L16.2504 11.9843L18.5758 10.6506V10.6495L20.9023 9.31582L23.2288 7.98102" stroke="#C82AEF" stroke-width="0.11185" stroke-miterlimit="10"/>
<path d="M11.5975 14.6527L9.271 15.9864" stroke="#C82AEF" stroke-width="0.11185" stroke-miterlimit="10"/>
<path d="M13.924 15.9865L11.5975 17.3212L9.271 18.656" stroke="#C82AEF" stroke-width="0.11185" stroke-miterlimit="10"/>
<path d="M16.2504 17.3212L13.924 18.656L11.5975 19.9886L9.271 21.3234" stroke="#C82AEF" stroke-width="0.11185" stroke-miterlimit="10"/>
<path d="M23.2277 15.9865L20.9023 17.3212L18.5759 18.6549V18.656L16.2505 19.9886L13.924 21.3234L11.5975 22.6582" stroke="#C82AEF" stroke-width="0.11185" stroke-miterlimit="10"/>
<path d="M23.2276 18.656L20.9023 19.9886L18.5758 21.3234L16.2504 22.6582L13.924 23.9918" stroke="#C82AEF" stroke-width="0.11185" stroke-miterlimit="10"/>
<path d="M23.2288 21.3234L20.9023 22.657V22.6582L18.5758 23.9918" stroke="#C82AEF" stroke-width="0.11185" stroke-miterlimit="10"/>
<path d="M25.5832 22.6649L25.5642 22.6749L23.2489 23.9963L23.2355 24.003L20.9112 25.3289L20.9056 25.3322L18.5758 26.6603" stroke="#C82AEF" stroke-width="0.11185" stroke-miterlimit="10"/>
<path d="M9.271 18.656L11.5975 19.9886L13.924 21.3234L16.2504 22.6582L18.5758 23.9918" stroke="#C82AEF" stroke-width="0.11185" stroke-miterlimit="10"/>
<path d="M18.5758 23.993L20.9023 25.3255" stroke="#C82AEF" stroke-width="0.11185" stroke-miterlimit="10"/>
<path d="M9.271 15.9865L11.5975 17.3212L13.924 18.656L16.2504 19.9886V19.9897L18.5758 21.3234L20.9023 22.6582L23.2288 23.9919V23.993" stroke="#C82AEF" stroke-width="0.11185" stroke-miterlimit="10"/>
<path d="M23.2288 21.3234L20.9023 19.9897V19.9886L18.5759 18.656L16.2505 17.3212" stroke="#C82AEF" stroke-width="0.11185" stroke-miterlimit="10"/>
<path d="M9.271 21.3234L11.5975 22.6582L13.924 23.9918V23.993L16.2504 25.3255L18.5758 23.9918V23.993V26.6603L16.2504 27.994L13.924 26.6603L11.5975 25.3255L9.271 23.9918" stroke="#C82AEF" stroke-width="0.11185" stroke-miterlimit="10"/>
<path d="M9.27104 13.318V15.9864V18.656V21.3234V23.9919L6.94568 22.6582V9.3158L9.27104 10.6506" stroke="#C82AEF" stroke-width="0.11185" stroke-miterlimit="10"/>
<path d="M23.2288 18.656H23.2277L20.9023 17.3212L18.5758 15.9876V15.9865" stroke="#C82AEF" stroke-width="0.11185" stroke-miterlimit="10"/>
<path d="M20.9023 14.6527L23.2277 15.9864H23.2288" stroke="#C82AEF" stroke-width="0.11185" stroke-miterlimit="10"/>
<path d="M18.5758 13.318L16.2504 11.9843L13.924 10.6506V10.6495L11.5975 9.31582L9.271 7.98102" stroke="#C82AEF" stroke-width="0.11185" stroke-miterlimit="10"/>
<path d="M20.9023 11.9843L18.5759 10.6506L16.2505 9.31577L13.924 7.98098L11.5975 6.64841V6.64618" stroke="#C82AEF" stroke-width="0.11185" stroke-miterlimit="10"/>
<path d="M23.2288 10.6506L20.9023 9.31576L18.5758 7.98096L16.2504 6.6484V6.64616L13.924 5.3136" stroke="#C82AEF" stroke-width="0.11185" stroke-miterlimit="10"/>
<path d="M16.2225 3.9621L18.5546 5.29466L18.5591 5.29689L20.8912 6.63057L20.899 6.63504L23.2277 7.96425L23.24 7.97096V7.97207L25.5643 9.30017L25.5799 9.30799" stroke="#C82AEF" stroke-width="0.11185" stroke-miterlimit="10"/>
<path d="M25.5553 9.3158V22.6582H25.5541L23.2288 21.3234V18.656V15.9864V13.318L20.9023 14.6516V14.6528L18.5758 15.9864L16.2504 17.3212L13.924 15.9864L11.5975 14.6528L9.271 13.318V10.6506L11.5975 11.9843L13.924 13.318L16.2504 14.6528V14.6516L18.5758 13.318L20.9023 11.9843L23.2288 10.6506V10.6495L25.5541 9.3158H25.5553Z" stroke="#C82AEF" stroke-width="0.11185" stroke-miterlimit="10"/>
</svg>
